<svg width="55" height="23" viewBox="0 0 55 23" fill="none" xmlns="http://www.w3.org/2000/svg">
<path fill-rule="evenodd" clip-rule="evenodd" d="M10.0234 2.9039C9.3805 3.66471 8.35182 4.26477 7.32313 4.17905C7.19454 3.15036 7.69817 2.05738 8.28752 1.3823C8.93045 0.600069 10.0556 0.0428621 10.9664 0C11.0736 1.07155 10.6557 2.12167 10.0234 2.9039ZM10.9557 4.38265C10.0494 4.33049 9.22251 4.65519 8.55458 4.91747C8.12476 5.08625 7.76077 5.22917 7.48386 5.22917C7.17311 5.22917 6.79409 5.0786 6.36855 4.90955C5.81095 4.68804 5.17346 4.43478 4.50495 4.44694C2.97263 4.46837 1.54746 5.33633 0.765232 6.71863C-0.842095 9.48323 0.347327 13.5766 1.90108 15.8268C2.66188 16.9412 3.5727 18.1628 4.77283 18.1199C5.30082 18.1 5.68063 17.9388 6.07369 17.7721C6.52621 17.58 6.9963 17.3806 7.73032 17.3806C8.43888 17.3806 8.88842 17.5748 9.31994 17.7613C9.73025 17.9387 10.1243 18.1089 10.7092 18.0985C11.9522 18.0771 12.7345 16.9841 13.4953 15.8697C14.3163 14.6736 14.6771 13.5063 14.7318 13.3292L14.7383 13.3087C14.7369 13.3074 14.7268 13.3027 14.7089 13.2945C14.4344 13.1689 12.3367 12.2085 12.3166 9.63325C12.2964 7.47169 13.9805 6.37651 14.2456 6.20411C14.2617 6.19361 14.2726 6.18654 14.2775 6.18285C13.2059 4.59696 11.5343 4.42551 10.9557 4.38265ZM19.5602 17.9806V1.27515H25.8288C29.0649 1.27515 31.3259 3.50397 31.3259 6.76149C31.3259 10.019 29.022 12.2693 25.7431 12.2693H22.1534V17.9806H19.5602ZM22.1534 3.46111H25.143C27.3933 3.46111 28.6791 4.66125 28.6791 6.7722C28.6791 8.88316 27.3933 10.094 25.1323 10.094H22.1534V3.46111ZM39.8876 15.9768C39.2018 17.2841 37.6909 18.1092 36.0621 18.1092C33.6511 18.1092 31.9688 16.6733 31.9688 14.5088C31.9688 12.3657 33.5976 11.1334 36.6086 10.9513L39.8447 10.7584V9.83684C39.8447 8.47597 38.9553 7.7366 37.3694 7.7366C36.0621 7.7366 35.1085 8.41168 34.9156 9.44037H32.5796C32.6546 7.27583 34.6905 5.70065 37.4444 5.70065C40.4126 5.70065 42.3414 7.2544 42.3414 9.66539V17.9806H39.9412V15.9768H39.8876ZM36.7586 16.1268C35.3763 16.1268 34.4977 15.4625 34.4977 14.4445C34.4977 13.3944 35.3442 12.7836 36.9622 12.6872L39.8447 12.505V13.448C39.8447 15.0124 38.516 16.1268 36.7586 16.1268ZM50.3031 18.6343C49.2636 21.5596 48.0742 22.524 45.5454 22.524C45.3525 22.524 44.7096 22.5026 44.5595 22.4597V20.4559C44.7203 20.4773 45.1167 20.4988 45.3203 20.4988C46.4669 20.4988 47.1098 20.0166 47.5063 18.7629L47.742 18.0235L43.3487 5.86139H46.0597L49.1136 15.7304H49.1672L52.2211 5.86139H54.8571L50.3031 18.6343Z" fill="#C9C9C9"/>
</svg>
