<svg width="35" height="35" viewBox="0 0 35 35" fill="none" xmlns="http://www.w3.org/2000/svg">
<circle cx="17.5" cy="17.5" r="17.5" fill="#BCB0C4"/>
<path fill-rule="evenodd" clip-rule="evenodd" d="M14.1462 24.2087C14.9401 24.2087 15.5837 24.8523 15.5837 25.6462C15.5837 26.4401 14.9401 27.0837 14.1462 27.0837C13.3523 27.0837 12.7087 26.4401 12.7087 25.6462C12.7087 24.8523 13.3523 24.2087 14.1462 24.2087ZM22.7712 24.2087C23.5651 24.2087 24.2087 24.8523 24.2087 25.6462C24.2087 26.4401 23.5651 27.0837 22.7712 27.0837C21.9773 27.0837 21.3337 26.4401 21.3337 25.6462C21.3337 24.8523 21.9773 24.2087 22.7712 24.2087ZM8.87533 7.91699H10.792C11.2286 7.91699 11.605 8.21105 11.7168 8.62399L11.7392 8.7296L12.2039 11.7503H26.1253C26.7001 11.7503 27.1363 12.2493 27.079 12.8048L27.0608 12.9165L25.4777 20.0407C25.1981 21.2989 24.1185 22.2099 22.8458 22.2867L22.6712 22.292H14.353C12.9907 22.292 11.8241 21.3378 11.542 20.0207L11.5114 19.8542L9.96982 9.83366H8.87533C8.34605 9.83366 7.91699 9.4046 7.91699 8.87533C7.91699 8.38386 8.28695 7.9788 8.76356 7.92344L8.87533 7.91699H10.792H8.87533ZM24.9306 13.667H12.4988L13.4058 19.5627C13.4722 19.9943 13.8201 20.3215 14.2452 20.3693L14.353 20.3753H22.6712C23.0829 20.3753 23.444 20.1132 23.5764 19.7318L23.6067 19.6249L24.9306 13.667Z" fill="white"/>
</svg>
