<svg width="18" height="18" viewBox="0 0 18 18" fill="none" xmlns="http://www.w3.org/2000/svg">
<path fill-rule="evenodd" clip-rule="evenodd" d="M14.8337 9.83366C16.2144 9.83366 17.3337 10.9529 17.3337 12.3337V14.8337C17.3337 16.2144 16.2144 17.3337 14.8337 17.3337H12.3337C10.9529 17.3337 9.83366 16.2144 9.83366 14.8337V12.3337C9.83366 10.9529 10.9529 9.83366 12.3337 9.83366H14.8337ZM5.66699 9.83366C7.0477 9.83366 8.16699 10.9529 8.16699 12.3337V14.8337C8.16699 16.2144 7.0477 17.3337 5.66699 17.3337H3.16699C1.78628 17.3337 0.666992 16.2144 0.666992 14.8337V12.3337C0.666992 10.9529 1.78628 9.83366 3.16699 9.83366H5.66699ZM14.8337 11.5003H12.3337C11.8734 11.5003 11.5003 11.8734 11.5003 12.3337V14.8337C11.5003 15.2939 11.8734 15.667 12.3337 15.667H14.8337C15.2939 15.667 15.667 15.2939 15.667 14.8337V12.3337C15.667 11.8734 15.2939 11.5003 14.8337 11.5003ZM5.66699 11.5003H3.16699C2.70675 11.5003 2.33366 11.8734 2.33366 12.3337V14.8337C2.33366 15.2939 2.70675 15.667 3.16699 15.667H5.66699C6.12723 15.667 6.50033 15.2939 6.50033 14.8337V12.3337C6.50033 11.8734 6.12723 11.5003 5.66699 11.5003ZM5.66699 0.666992C7.0477 0.666992 8.16699 1.78628 8.16699 3.16699V5.66699C8.16699 7.0477 7.0477 8.16699 5.66699 8.16699H3.16699C1.78628 8.16699 0.666992 7.0477 0.666992 5.66699V3.16699C0.666992 1.78628 1.78628 0.666992 3.16699 0.666992H5.66699ZM14.8337 0.666992C16.2144 0.666992 17.3337 1.78628 17.3337 3.16699V5.66699C17.3337 7.0477 16.2144 8.16699 14.8337 8.16699H12.3337C10.9529 8.16699 9.83366 7.0477 9.83366 5.66699V3.16699C9.83366 1.78628 10.9529 0.666992 12.3337 0.666992H14.8337ZM5.66699 2.33366H3.16699C2.70675 2.33366 2.33366 2.70675 2.33366 3.16699V5.66699C2.33366 6.12723 2.70675 6.50033 3.16699 6.50033H5.66699C6.12723 6.50033 6.50033 6.12723 6.50033 5.66699V3.16699C6.50033 2.70675 6.12723 2.33366 5.66699 2.33366ZM14.8337 2.33366H12.3337C11.8734 2.33366 11.5003 2.70675 11.5003 3.16699V5.66699C11.5003 6.12723 11.8734 6.50033 12.3337 6.50033H14.8337C15.2939 6.50033 15.667 6.12723 15.667 5.66699V3.16699C15.667 2.70675 15.2939 2.33366 14.8337 2.33366Z" fill="white"/>
</svg>
