<svg width="14" height="14" viewBox="0 0 14 14" fill="none" xmlns="http://www.w3.org/2000/svg">
<path fill-rule="evenodd" clip-rule="evenodd" d="M12.9997 12.3335C13.3679 12.3335 13.6663 12.632 13.6663 13.0002C13.6663 13.3684 13.3679 13.6668 12.9997 13.6668H0.999674C0.631485 13.6668 0.333008 13.3684 0.333008 13.0002C0.333008 12.632 0.631485 12.3335 0.999674 12.3335H12.9997ZM3.19503 7.86209L10.5284 0.528758C10.7687 0.288436 11.1468 0.269949 11.4084 0.473299L11.4712 0.528758L13.4712 2.52876C13.7115 2.76908 13.73 3.14723 13.5266 3.40876L13.4712 3.47157L6.13784 10.8049C6.03365 10.9091 5.89853 10.9752 5.75406 10.9944L5.66643 11.0002H3.66643C3.32454 11.0002 3.04276 10.7428 3.00425 10.4112L2.99977 10.3335V8.3335C2.99977 8.18615 3.04854 8.04384 3.13715 7.92814L3.19503 7.86209L10.5284 0.528758L3.19503 7.86209ZM10.9997 1.94296L4.33301 8.60963V9.66682H5.3902L12.0569 3.00015L10.9997 1.94296Z" fill="#777777"/>
</svg>
