<svg width="22" height="22" viewBox="0 0 22 22" fill="none" xmlns="http://www.w3.org/2000/svg">
<path fill-rule="evenodd" clip-rule="evenodd" d="M18.7917 0.333008H3.20762C1.62008 0.333008 0.333008 1.62008 0.333008 3.20762V18.7917C0.333008 20.3795 1.62008 21.6663 3.20762 21.6663H10.8936L10.9068 14.0431H8.92611C8.66869 14.0431 8.45975 13.8349 8.45897 13.5776L8.44931 11.1201C8.44827 10.8614 8.658 10.651 8.91665 10.651H10.8938V8.27651C10.8938 5.52115 12.5767 4.02076 15.0346 4.02076H17.0518C17.3097 4.02076 17.5191 4.22997 17.5191 4.4881V6.56007C17.5191 6.8182 17.3099 7.0274 17.0521 7.0274L15.8141 7.02812C14.4773 7.02812 14.2184 7.66317 14.2184 8.59557V10.6512H17.1558C17.4358 10.6512 17.6529 10.8956 17.6198 11.1733L17.3285 13.6308C17.3007 13.866 17.1013 14.0431 16.8645 14.0431H14.2317L14.2184 21.6666H18.7917C20.3793 21.6666 21.6663 20.3795 21.6663 18.7919V3.20762C21.6663 1.62008 20.3793 0.333008 18.7917 0.333008Z" fill="white"/>
</svg>
