<svg width="20" height="18" viewBox="0 0 20 18" fill="none" xmlns="http://www.w3.org/2000/svg">
<path d="M0 7.38633C0.984336 8.11973 1.91031 8.94727 2.57285 10.0632C3.19922 11.072 4.03262 11.847 4.9725 12.3578C4.39293 12.949 4.03461 13.7579 4.03461 14.6492V15.2352H7.31023C7.52008 15.2352 7.72523 15.215 7.92418 15.1771C8.1359 16.0925 9.45758 17.2996 10 17.5866C10.5934 17.2743 11.8721 16.0527 12.076 15.1766C12.2749 15.2145 12.4799 15.2352 12.6898 15.2352H15.9654V14.6492C15.9654 13.7576 15.6069 12.9485 15.027 12.3573C15.9669 11.8465 16.8007 11.0722 17.4271 10.0633C18.1072 8.9282 19.0141 8.12125 20 7.38637C18.9652 6.89457 17.5511 6.07395 16.3714 6.01375C16.6264 5.04254 17.117 4.14309 17.5874 3.30441C15.9364 3.33102 14.4586 3.09094 12.7527 4.11559C11.6164 1.6852 10.6502 1.05051 10 0.414062C9.3743 1.03281 8.38047 1.67781 7.24727 4.11559C5.87742 3.20316 3.98309 3.27957 2.41258 3.30437C2.87637 4.13078 3.38273 5.06176 3.62844 6.01332C2.44895 6.07371 1.03484 6.89473 0 7.38633ZM6.87512 5.26969C6.77973 5.68957 6.7243 6.12797 6.7243 6.58004C6.7243 8.42137 7.6427 10.0363 8.44383 11.0948C7.83941 10.8743 7.27129 10.527 6.77461 10.0655C5.86359 9.21898 5.23168 8.03559 4.99527 6.73324C4.85063 5.93629 4.62805 5.18059 4.33105 4.47629C5.25781 4.48199 6.12668 4.7707 6.87512 5.26969ZM12.1038 6.58004C12.1038 8.59699 10.7031 10.3667 10.0007 11.1272C9.29891 10.3648 7.89617 8.58937 7.89617 6.58004C7.89617 4.57164 9.29758 2.79695 10 2.03371C10.7021 2.79656 12.1038 4.57133 12.1038 6.58004ZM15.6689 4.47633C15.3719 5.18062 15.1493 5.93633 15.0047 6.73324C14.7683 8.03559 14.1364 9.21898 13.2254 10.0655C12.7287 10.527 12.1605 10.8742 11.5561 11.0948C12.3573 10.0363 13.2757 8.42137 13.2757 6.58004C13.2757 6.12793 13.2202 5.68949 13.1248 5.26957C13.8733 4.77063 14.7422 4.48199 15.6689 4.47633ZM13.8831 11.5996C13.7212 11.536 13.5532 11.4847 13.38 11.4474C13.6033 11.2888 13.8183 11.1143 14.0231 10.924C15.0648 9.95609 15.8011 8.62965 16.1127 7.16894C16.6947 7.20805 17.2716 7.36086 17.8188 7.62738L17.8592 7.64703C17.3295 8.16711 16.8513 8.7691 16.4316 9.44512C15.8081 10.4492 14.9095 11.2069 13.8831 11.5996ZM12.6897 14.0633C12.5066 14.0633 12.3289 14.0396 12.1595 13.9954C12.0732 13.5102 11.8393 13.0248 11.4598 12.5454H12.6897C13.6465 12.5454 14.4561 13.1875 14.7105 14.0633H12.6897ZM8.97426 14.4183C8.97426 13.7699 9.54004 13.1164 9.97742 12.7258L10 12.746L10.0226 12.7257C10.4596 13.1161 11.0257 13.7697 11.0257 14.4183C11.0257 15.0779 10.4402 15.7429 9.99996 16.131C9.56019 15.7432 8.97426 15.078 8.97426 14.4183ZM5.28949 14.0633C5.54387 13.1875 6.35348 12.5454 7.31023 12.5454H8.54012C8.16074 13.0246 7.92687 13.5099 7.84059 13.995C7.67105 14.0393 7.49344 14.0633 7.31023 14.0633H5.28949ZM2.14086 7.64703L2.18125 7.62738C2.72836 7.36086 3.30527 7.20793 3.8873 7.16887C4.19891 8.62961 4.93523 9.95609 5.97695 10.924C6.18176 11.1143 6.39676 11.2889 6.62008 11.4474C6.44684 11.4847 6.27883 11.5361 6.11691 11.5996C5.09055 11.207 4.19195 10.4493 3.56844 9.44512C3.14871 8.7691 2.67051 8.16711 2.14086 7.64703Z" fill="#2D2D2D"/>
</svg>
