<svg width="18" height="16" viewBox="0 0 18 16" fill="none" xmlns="http://www.w3.org/2000/svg">
<path fill-rule="evenodd" clip-rule="evenodd" d="M1.99998 5.60384C1.99998 8.56474 6.51148 12.156 8.99998 13.8C11.4885 12.156 16 8.56474 16 5.60384C16 4.58166 15.6587 2.19999 12.5 2.19999C11.7142 2.19999 10.5352 3.15941 10.3223 3.90021C10.052 4.84062 8.99998 5.03267 8.99998 5.03267C8.99998 5.03267 7.99258 4.84062 7.6493 3.90021C7.38322 3.1713 6.28573 2.19999 5.49998 2.19999C2.34123 2.19999 1.99998 4.58166 1.99998 5.60384ZM9 16C8.733 16 8.466 15.9316 8.2275 15.7934C7.386 15.3031 0 10.8587 0 5.81633C0 2.33788 2.4105 0 6 0C7.1025 0 8.178 0.482997 9 1.22931C9.822 0.482997 10.8975 0 12 0C15.5895 0 18 2.33788 18 5.81633C18 10.8587 10.614 15.3031 9.7725 15.7934C9.534 15.9316 9.267 16 9 16Z" fill="white"/>
</svg>
