<svg width="22" height="22" viewBox="0 0 22 22" fill="none" xmlns="http://www.w3.org/2000/svg">
<path fill-rule="evenodd" clip-rule="evenodd" d="M15.2848 0.333008C18.7069 0.333008 21.5049 3.0566 21.625 6.45L21.629 6.6772V15.2848C21.629 18.707 18.9054 21.505 15.512 21.625L15.2848 21.629H6.6772C3.25505 21.629 0.457055 18.9054 0.33702 15.512L0.333008 15.2848V6.6772C0.333008 3.25505 3.0566 0.457055 6.45 0.33702L6.6772 0.333008H15.2848ZM15.2848 2.47538H6.6772C4.42694 2.47538 2.5898 4.2443 2.48053 6.46749L2.47538 6.6772V15.2848C2.47538 17.5351 4.24433 19.3722 6.46749 19.4815L6.6772 19.4866H15.2848C17.5351 19.4866 19.3722 17.7177 19.4815 15.4945L19.4866 15.2848V6.6772C19.4866 4.4269 17.7177 2.5898 15.4945 2.48053L15.2848 2.47538ZM10.981 5.4731C14.0181 5.4731 16.4889 7.94391 16.4889 10.981C16.4889 14.018 14.0181 16.4889 10.981 16.4889C7.94394 16.4889 5.4731 14.018 5.4731 10.981C5.4731 7.94394 7.94394 5.4731 10.981 5.4731ZM10.981 7.61548C9.1223 7.61548 7.61548 9.12226 7.61548 10.981C7.61548 12.8398 9.12226 14.3465 10.981 14.3465C12.8397 14.3465 14.3465 12.8397 14.3465 10.981C14.3465 9.12226 12.8398 7.61548 10.981 7.61548ZM16.4994 4.19477C17.2283 4.19477 17.8192 4.78565 17.8192 5.51453C17.8192 6.24342 17.2283 6.8343 16.4994 6.8343C15.7705 6.8343 15.1797 6.24342 15.1797 5.51453C15.1797 4.78565 15.7705 4.19477 16.4994 4.19477Z" fill="white"/>
</svg>
