<svg width="32" height="20" viewBox="0 0 32 20" fill="none" xmlns="http://www.w3.org/2000/svg">
<path fill-rule="evenodd" clip-rule="evenodd" d="M9.79123 0C12.1243 0 14.2279 0.76494 15.8853 2.10359C13.6032 3.9012 12.1625 6.69323 12.1625 9.82948C12.1625 12.9785 13.6414 15.7578 15.9363 17.5554C14.2279 18.8558 12.1243 19.659 9.82948 19.659C4.39841 19.659 0 15.2606 0 9.82948C0 4.39841 4.39841 0 9.79123 0ZM21.992 0C27.4231 0 31.8215 4.39841 31.8725 9.82948C31.8725 15.2606 27.4741 19.659 22.043 19.659C19.71 19.659 17.5936 18.9068 15.9363 17.5554C18.2311 15.7578 19.659 12.9785 19.659 9.82948C19.659 6.68048 18.1801 3.9012 15.8853 2.10359C17.5936 0.803187 19.6972 0 21.992 0ZM15.8853 2.51155C17.9888 4.21992 19.302 6.87171 19.302 9.82948C19.302 12.8 17.9378 15.439 15.8853 17.1474C13.7817 15.439 12.4685 12.7873 12.4685 9.82948C12.4685 6.87171 13.7944 4.21992 15.8853 2.51155Z" fill="white"/>
</svg>
