<svg width="15" height="15" viewBox="0 0 15 15" fill="none" xmlns="http://www.w3.org/2000/svg">
<path fill-rule="evenodd" clip-rule="evenodd" d="M9.9802 8.39739C11.3718 6.44472 11.1917 3.71632 9.43983 1.96447C7.48721 0.0118445 4.32138 0.0118447 2.36876 1.96447C0.416142 3.91709 0.416142 7.08291 2.36876 9.03553C4.12062 10.7874 6.84902 10.9675 8.80169 9.5759L13.5646 14.3388L14.7431 13.1603L9.9802 8.39739ZM8.26132 3.14298C9.56307 4.44472 9.56307 6.55527 8.26132 7.85702C6.95957 9.15877 4.84902 9.15877 3.54727 7.85702C2.24553 6.55527 2.24553 4.44472 3.54727 3.14298C4.84902 1.84123 6.95957 1.84123 8.26132 3.14298Z" fill="#777777"/>
</svg>
