<svg width="16" height="16" viewBox="0 0 16 16" fill="none" xmlns="http://www.w3.org/2000/svg">
<path fill-rule="evenodd" clip-rule="evenodd" d="M14.75 11C15.1346 11 15.4516 11.2895 15.495 11.6625L15.5 11.75V13.25C15.5 14.4483 14.5633 15.4277 13.3822 15.4962L13.25 15.5H2.75C1.55174 15.5 0.572254 14.5633 0.50382 13.3822L0.5 13.25V11.75C0.5 11.3358 0.835786 11 1.25 11C1.63463 11 1.95163 11.2895 1.99495 11.6625L2 11.75V13.25C2 13.6346 2.28953 13.9516 2.66253 13.995L2.75 14H13.25C13.6346 14 13.9516 13.7105 13.995 13.3375L14 13.25V11.75C14 11.3358 14.3358 11 14.75 11ZM7.88865 0.508263L7.93248 0.502998L8 0.5L8.05643 0.502091L8.15054 0.51518L8.23411 0.537304L8.31742 0.570255L8.39053 0.609497L8.46909 0.664767L8.53033 0.71967L10.7803 2.96967C11.0732 3.26256 11.0732 3.73744 10.7803 4.03033C10.4874 4.32322 10.0126 4.32322 9.71967 4.03033L8.75 3.0605V10.25C8.75 10.6642 8.41421 11 8 11C7.58579 11 7.25 10.6642 7.25 10.25V3.0605L6.28033 4.03033C5.98744 4.32322 5.51256 4.32322 5.21967 4.03033C4.92678 3.73744 4.92678 3.26256 5.21967 2.96967L7.46967 0.71967C7.49622 0.693124 7.52426 0.668985 7.55352 0.647251L7.63695 0.593503L7.7215 0.553419L7.80051 0.526884L7.88865 0.508263Z" fill="white"/>
</svg>
