<svg width="30" height="20" viewBox="0 0 30 20" fill="none" xmlns="http://www.w3.org/2000/svg">
<path fill-rule="evenodd" clip-rule="evenodd" d="M27.6157 0C28.8779 0 29.914 1.00067 29.9949 2.26164L30 2.42057V17.5794C30 18.8608 29.0143 19.9127 27.7722 19.9948L27.6157 20H2.38386C1.12212 20 0.0859553 18.9993 0.00508103 17.7384L0 17.5794V2.42057C0 1.13918 0.985693 0.0872618 2.22737 0.00515825L2.38386 0H27.6157ZM17.8132 6.30739H17.1121C17.0808 6.31592 17.0501 6.32703 17.0184 6.33243L16.5902 6.39823C16.5191 6.41048 16.4484 6.42464 16.3787 6.44256C15.7221 6.61102 15.1444 6.91892 14.7515 7.5008C14.274 8.20857 14.1613 9.26048 15.0437 10.0129C15.2911 10.2242 15.5657 10.3883 15.8478 10.5418L16.0605 10.6554C16.2742 10.7683 16.4899 10.887 16.6775 11.038C17.0613 11.3464 17.0036 11.7996 16.5681 12.0331C16.3296 12.161 16.0707 12.2025 15.8064 12.2055C15.3128 12.2114 14.8385 12.1239 14.3848 11.9407L13.9679 11.7561L13.6403 13.315L13.7919 13.3773C14.6344 13.6709 15.4994 13.7587 16.3809 13.6438C16.9412 13.5709 17.4676 13.3924 17.9328 13.0516C18.7412 12.4592 18.9653 11.4766 18.7602 10.7396C18.6191 10.2322 18.2667 9.8919 17.8435 9.62517C17.5287 9.42683 17.1934 9.2625 16.8744 9.07098C16.7141 8.97466 16.5558 8.86662 16.4208 8.7374C16.2226 8.5476 16.223 8.28199 16.4282 8.10022C16.5493 7.99292 16.7051 7.9044 16.8598 7.86198C17.2878 7.74509 17.7216 7.79003 18.1465 7.89488C18.3827 7.9532 18.6116 8.04037 18.8511 8.11704L19.165 6.62856C19.1094 6.6067 19.0643 6.58485 19.0167 6.57153C18.8202 6.51616 18.6243 6.45594 18.4253 6.41242L18.1201 6.35611L17.8132 6.30739ZM13.8879 6.44459H12.0731L10.5685 13.5787H10.728C11.2246 13.5787 11.7212 13.5729 12.2177 13.5822C12.3524 13.5847 12.3995 13.5455 12.4274 13.4115C12.8635 11.318 13.3056 9.2261 13.7462 7.13383L13.8879 6.44459ZM2.96163 6.43432C2.8605 6.43392 2.78318 6.44272 2.75045 6.52684L2.73633 6.58688V6.63789L2.80707 6.66103C3.35569 6.79099 3.89276 6.9536 4.40951 7.1868C4.72316 7.3286 4.8883 7.55935 4.97204 7.89317C5.43824 9.75359 5.91679 11.6111 6.38722 13.4706C6.41002 13.5603 6.44588 13.5817 6.53077 13.5809C7.09414 13.5774 7.65764 13.5765 8.22083 13.5814C8.31595 13.5822 8.35833 13.5494 8.39389 13.4633C9.32387 11.2042 10.2568 8.94606 11.1887 6.68786L11.2836 6.44458H9.37708L7.50205 11.2526C7.46602 11.1981 7.45482 11.1532 7.44636 11.1076L6.71725 7.17955C6.62885 6.70597 6.30336 6.43752 5.82869 6.43752C4.873 6.43734 3.91726 6.43956 2.96163 6.43432ZM23.7958 6.43936L22.2762 6.43955C21.9318 6.43998 21.6731 6.58898 21.514 6.87878L21.459 6.99404L18.7902 13.4631C18.7761 13.4968 18.7662 13.5322 18.7505 13.5769C19.3685 13.5769 19.9732 13.5787 20.5777 13.5729C20.6139 13.5724 20.6671 13.5193 20.6823 13.4791C20.7892 13.1948 20.892 12.9088 20.9881 12.6205C21.0172 12.5326 21.0605 12.5066 21.1495 12.5071L22.1071 12.5093L23.1475 12.5093C23.3211 12.5114 23.3622 12.5283 23.3971 12.6625L23.5875 13.5724H25.2637L23.7958 6.43936ZM22.4957 8.4066L22.5236 8.4104L23.0663 11.0521H21.5515L22.4957 8.4066Z" fill="white"/>
</svg>
