<svg width="28" height="20" viewBox="0 0 28 20" fill="none" xmlns="http://www.w3.org/2000/svg">
<path fill-rule="evenodd" clip-rule="evenodd" d="M24.9399 0.596916C26.1447 0.925479 27.0934 1.89376 27.4154 3.12287C28.0003 5.35131 28.0003 10.0001 28.0003 10.0001C28.0003 10.0001 28.0003 14.6491 27.4154 16.8773C27.0934 18.1065 26.1447 19.075 24.9399 19.4033C22.7563 20.0005 14.0002 20.0005 14.0002 20.0005C14.0002 20.0005 5.24424 20.0005 3.06062 19.4033C1.85587 19.075 0.907192 18.1065 0.585203 16.8773C0 14.6491 0 10.0001 0 10.0001C0 10.0001 0 5.35131 0.585203 3.12287C0.907192 1.89376 1.85587 0.925479 3.06062 0.596916C5.24424 0 14.0002 0 14.0002 0C14.0002 0 22.7563 0 24.9399 0.596916ZM11.2002 5.71421V14.286L18.4746 10.0003L11.2002 5.71421Z" fill="white"/>
</svg>
